<svg xmlns:xlink="http://www.w3.org/1999/xlink" xmlns="http://www.w3.org/2000/svg" version="1.1" viewBox="0.0 0.0 1134.3464566929133 473.12335958005247" fill="none" stroke="none" stroke-linecap="square" stroke-miterlimit="10">
  <clipPath id="p.0">
    <path d="m0 0l1134.3464 0l0 473.12335l-1134.3464 0l0 -473.12335z" />
  </clipPath>
  <g transform="translate(50%, 50%)">
    <path fill="#000000" fill-opacity="0.0" d="m0 0l1134.3464 0l0 473.12335l-1134.3464 0z" fill-rule="evenodd" />
    <path fill="#0091da" d="m661.08344 132.9895l0 0c8.904358 0 16.122803 14.7851715 16.122803 33.02362c0 18.23845 -7.218445 33.02362 -16.122803 33.02362l233.07721 0c8.904419 0 16.122803 -14.7851715 16.122803 -33.02362c0 -18.23845 -7.218384 -33.02362 -16.122803 -33.02362z" fill-rule="evenodd" />
    <path fill="#66bde8" d="m661.08344 132.9895l0 0c-8.904358 0 -16.122803 14.7851715 -16.122803 33.02362c0 18.23845 7.218445 33.02362 16.122803 33.02362l0 0c8.904358 0 16.122803 -14.7851715 16.122803 -33.02362c0 -18.23845 -7.218445 -33.02362 -16.122803 -33.02362z" fill-rule="evenodd" />
    <path fill="#000000" fill-opacity="0.0" d="m661.08344 199.03674l0 0c8.904358 0 16.122803 -14.7851715 16.122803 -33.02362c0 -18.23845 -7.218445 -33.02362 -16.122803 -33.02362l0 0c-8.904358 0 -16.122803 14.7851715 -16.122803 33.02362c0 18.23845 7.218445 33.02362 16.122803 33.02362l233.07721 0c8.904419 0 16.122803 -14.7851715 16.122803 -33.02362c0 -18.23845 -7.218384 -33.02362 -16.122803 -33.02362l-233.07721 0" fill-rule="evenodd" />
  </g>
</svg>
